<?xml version="1.0" encoding="utf-8"?>
<!-- Generator: Adobe Illustrator 21.1.0, SVG Export Plug-In . SVG Version: 6.00 Build 0)  -->
<svg version="1.1" id="Layer_1" xmlns="http://www.w3.org/2000/svg" xmlns:xlink="http://www.w3.org/1999/xlink" x="0px" y="0px"
	 viewBox="0 0 15 16" style="enable-background:new 0 0 15 16;" xml:space="preserve">
<style type="text/css">
	.st0{fill:none;stroke:#6592B8;stroke-linecap:round;stroke-miterlimit:10;}
	.st1{fill:#231F20;}
	.st2{fill:none;stroke:#231F20;stroke-miterlimit:10;}
	.st3{fill:none;stroke:#231F20;stroke-linejoin:round;stroke-miterlimit:10;}
	.st4{fill:none;stroke:#231F20;stroke-width:2;stroke-linejoin:round;stroke-miterlimit:10;}
	.st5{fill:#B62411;}
	.st6{fill:none;stroke:#FFFFFF;stroke-linejoin:round;stroke-miterlimit:10;}
	.st7{fill:#FFFFFF;}
	.st8{fill:#354253;}
	.st9{fill:none;stroke:#231F20;stroke-width:2;stroke-linecap:round;stroke-miterlimit:10;}
	.st10{fill:none;stroke:#000000;stroke-width:2;stroke-miterlimit:10;}
</style>
<g>
	<path class="st1" d="M13.4,8.9l-2.8-2.8C9.6,5,7.8,4.8,6.5,5.6C6,5.8,5.8,6.4,6.1,6.9C6.4,7.4,7,7.6,7.5,7.3C8,7,8.8,7.1,9.3,7.5
		l2.8,2.8c0.3,0.3,0.5,0.7,0.4,1.1c0,0.4-0.2,0.8-0.5,1.1c-0.6,0.5-1.5,0.4-2.1-0.2l-0.5-0.5c-0.4-0.4-1-0.4-1.4,0
		c-0.4,0.4-0.4,1,0,1.4l0.5,0.5c1.3,1.3,3.3,1.9,5.1,0.1c0.6-0.6,1-1.5,1-2.3C14.5,10.6,14.1,9.6,13.4,8.9z"/>
	<path class="st1" d="M8.7,10C9,9.7,9,9.2,8.8,8.8C8.5,8.3,7.9,8.2,7.5,8.4C6.9,8.8,6.1,8.7,5.7,8.2L2.9,5.4
		C2.6,5.1,2.4,4.7,2.4,4.3c0-0.4,0.2-0.8,0.5-1.1c0.6-0.5,1.5-0.4,2.1,0.2l0.6,0.6c0.4,0.4,1,0.4,1.4,0c0.4-0.4,0.4-1,0-1.4L6.5,2
		C5.2,0.7,3.1,0.5,1.7,1.7C0.9,2.3,0.5,3.2,0.4,4.2c0,1,0.3,1.9,1,2.6l2.8,2.8C5.3,10.7,7.4,11.3,8.7,10z"/>
</g>
</svg>
