<?xml version="1.0" encoding="utf-8"?>
<!-- Generator: Adobe Illustrator 22.0.1, SVG Export Plug-In . SVG Version: 6.00 Build 0)  -->
<svg version="1.1" id="Layer_1" xmlns="http://www.w3.org/2000/svg" xmlns:xlink="http://www.w3.org/1999/xlink" x="0px" y="0px"
	 viewBox="0 0 27 28" style="enable-background:new 0 0 27 28;" xml:space="preserve">
<style type="text/css">
	.st0{fill:#A2A8A8;}
	.st1{fill:#393B3C;}
</style>
<g>
	<path class="st0" d="M24.7,27.6H2.5c-1.1,0-2-0.9-2-2V2.3c0-1.1,0.9-2,2-2h22.2c1.1,0,2,0.9,2,2v23.3
		C26.7,26.8,25.8,27.6,24.7,27.6z"/>
	<g>
		<path class="st1" d="M17.3,9.7v11H7v0.1c0,1.4,1.1,2.5,2.5,2.5h8.2c1.4,0,2.5-1.1,2.5-2.5V9.7H17.3z"/>
		<path class="st1" d="M9.6,18.6v-11h10.6V7.2c0-1.4-1.1-2.5-2.5-2.5H9.5C8.1,4.7,7,5.8,7,7.2v11.3H9.6z"/>
	</g>
</g>
</svg>
