<?xml version="1.0" encoding="utf-8"?>
<!-- Generator: Adobe Illustrator 22.0.1, SVG Export Plug-In . SVG Version: 6.00 Build 0)  -->
<svg version="1.1" id="Layer_1" xmlns="http://www.w3.org/2000/svg" xmlns:xlink="http://www.w3.org/1999/xlink" x="0px" y="0px"
	 viewBox="0 0 27 28" style="enable-background:new 0 0 27 28;" xml:space="preserve">
<style type="text/css">
	.st0{fill:#A2A8A8;}
	.st1{fill:#393B3C;}
</style>
<path class="st0" d="M24.7,27.6H2.5c-1.1,0-2-0.9-2-2V2.3c0-1.1,0.9-2,2-2h22.2c1.1,0,2,0.9,2,2v23.3C26.7,26.8,25.8,27.6,24.7,27.6
	z"/>
<g>
	<path class="st1" d="M13.5,6.6c2.4,0,2.7,0,3.6,0.1c0.9,0,1.3,0.2,1.7,0.3c0.4,0.1,0.7,0.4,1,0.7c0.3,0.3,0.5,0.6,0.7,1
		c0.1,0.3,0.3,0.8,0.3,1.7c0,0.9,0.1,1.2,0.1,3.6s0,2.7-0.1,3.6c0,0.9-0.2,1.3-0.3,1.7c-0.3,0.8-0.9,1.4-1.7,1.7
		c-0.3,0.1-0.8,0.3-1.7,0.3c-0.9,0-1.2,0.1-3.6,0.1s-2.7,0-3.6-0.1c-0.9,0-1.3-0.2-1.7-0.3c-0.4-0.1-0.7-0.4-1-0.7
		c-0.3-0.3-0.5-0.6-0.7-1c-0.1-0.3-0.3-0.8-0.3-1.7c0-0.9-0.1-1.2-0.1-3.6s0-2.7,0.1-3.6c0-0.9,0.2-1.3,0.3-1.7
		c0.1-0.4,0.4-0.7,0.7-1c0.3-0.3,0.6-0.5,1-0.7C8.6,6.9,9,6.7,9.9,6.7C10.8,6.6,11.1,6.6,13.5,6.6 M13.5,5c-2.4,0-2.7,0-3.7,0.1
		c-1,0-1.6,0.2-2.2,0.4c-0.6,0.2-1.1,0.6-1.6,1C5.6,7,5.3,7.5,5,8.1c-0.2,0.6-0.4,1.2-0.4,2.2c0,1-0.1,1.3-0.1,3.7s0,2.7,0.1,3.7
		c0,1,0.2,1.6,0.4,2.2c0.2,0.6,0.6,1.1,1,1.6c0.4,0.5,1,0.8,1.6,1c0.6,0.2,1.2,0.4,2.2,0.4c1,0,1.3,0.1,3.7,0.1s2.7,0,3.7-0.1
		c1,0,1.6-0.2,2.2-0.4c1.2-0.5,2.1-1.4,2.6-2.6c0.2-0.6,0.4-1.2,0.4-2.2c0-1,0.1-1.3,0.1-3.7s0-2.7-0.1-3.7c0-1-0.2-1.6-0.4-2.2
		c-0.2-0.6-0.6-1.1-1-1.6c-0.4-0.5-1-0.8-1.6-1c-0.6-0.2-1.2-0.4-2.2-0.4C16.2,5,15.9,5,13.5,5L13.5,5L13.5,5z"/>
	<path class="st1" d="M13.5,9.4c-2.5,0-4.6,2.1-4.6,4.6s2.1,4.6,4.6,4.6s4.6-2.1,4.6-4.6l0,0C18.1,11.4,16,9.4,13.5,9.4z M13.5,16.9
		c-1.6,0-3-1.3-3-3c0-1.6,1.3-3,3-3c1.6,0,3,1.3,3,3C16.5,15.6,15.1,16.9,13.5,16.9z"/>
	<circle class="st1" cx="18.3" cy="9.2" r="1.1"/>
</g>
</svg>
