<?xml version="1.0" encoding="UTF-8"?>
<svg width="657px" height="461px" viewBox="0 0 657 461" version="1.1" xmlns="http://www.w3.org/2000/svg" xmlns:xlink="http://www.w3.org/1999/xlink">
    <!-- Generator: Sketch 60.1 (88133) - https://sketch.com -->
    <title>RedpandaRocket@1x</title>
    <desc>Created with Sketch.</desc>
    <g id="RedpandaRocket" stroke="none" stroke-width="1" fill="none" fill-rule="evenodd">
        <g id="Redpanda-Rocket" fill-rule="nonzero">
            <polygon id="Path" fill="#8C8C8C" points="436.257 139.074 337.677 89.9816 432.844 143.012 530.045 208.382"></polygon>
            <polygon id="Path" fill="#CB3805" points="535.886 356.907 551.637 364.324 580.713 434.222 536.476 403.178 515.015 399.896 515.671 413.614 479.377 394.777 438.028 365.308 456.077 313.393 465.725 303.417 518.69 329.342"></polygon>
            <polygon id="Path" fill="#F68857" points="459.819 315.691 443.148 363.668 481.609 391.102 511.012 406.394 510.487 394.843 538.118 399.109 571.065 422.277 548.357 367.54 532.933 360.189 515.672 332.624 466.645 308.602"></polygon>
            <polygon id="Path" fill="#FFFFFF" points="457.456 359.861 468.942 322.122 509.371 342.731 521.841 363.405 506.089 352.116 494.144 351.919 515.409 368.853 539.102 375.416 551.31 397.928 535.69 386.508 515.54 384.342 493.816 371.347 495.391 378.632 501.889 390.577 484.956 380.666"></polygon>
            <polygon id="Path" fill="#310401" points="511.143 224.527 588.523 208.119 647.526 228.531 656.321 281.627 614.907 309.98 549.209 310.505 480.952 293.441 419.783 260.428 414.664 217.57"></polygon>
            <polygon id="Path" fill="#CB3805" points="423.852 258 419.52 221.902 511.471 228.531 588.195 212.254 643.654 231.419 651.661 279.855 613.463 305.977 549.8 306.502 482.658 289.766"></polygon>
            <polygon id="Path" fill="#ED6437" points="420.964 222.033 511.471 228.531 588.195 212.254 643.654 231.419 594.233 233.388 518.887 246.252 436.519 234.438"></polygon>
            <polygon id="Path" fill="#780500" points="423.852 258 423.064 251.24 435.862 243.692 489.812 275.327 551.637 292.325 612.806 289.635 651.661 279.855 613.463 305.977 549.8 306.502 482.658 289.766"></polygon>
            <polygon id="Path" fill="#401715" points="643.654 231.419 604.078 217.767 624.489 232.206 632.234 284.712 615.891 305.846 651.661 279.855"></polygon>
            <polygon id="Path" fill="#401715" points="546.78 221.049 575.79 214.88 598.039 233.191 604.208 289.963 592.263 306.174 570.342 306.371 577.956 291.144 568.833 237.72"></polygon>
            <polygon id="Path" fill="#401715" points="522.365 299.676 549.8 306.502 551.637 292.325 543.039 242.117 520.725 226.562 511.47 228.531 499.854 227.678 524.531 245.267 527.222 285.565"></polygon>
            <polygon id="Path" fill="#401715" points="482.658 289.766 501.56 294.491 506.483 279.921 499.066 243.429 484.496 226.562 469.138 225.446 479.377 240.607 487.121 273.752"></polygon>
            <polygon id="Path" fill="#401715" points="446.167 270.01 460.081 277.558 469.729 263.579 464.806 238.507 454.371 224.396 440.719 223.412 450.761 237.129 453.189 253.865"></polygon>
            <polygon id="Path" fill="#3B3939" points="382.438 247.039 394.646 246.252 413.548 244.151 432.713 242.051 447.02 241.329 448.136 241.395 449.055 241.92 557.479 294.623 558.201 295.016 558.726 295.607 565.552 302.695 574.872 312.212 476.883 320.547 479.902 326.914 480.821 328.817 480.033 330.72 472.158 350.541 471.632 351.788 470.648 352.576 461.788 359.598 507.139 418.995 498.345 430.415 421.424 383.882 424.64 397.009 412.17 396.024 341.156 363.799 324.879 319.76 266.27 292.129 103.83 211.992 103.174 211.729 102.714 211.204 58.1501 168.281 57.6251 167.756 57.2969 167.099 37.1479 129.295 31.3722 111.115 30.8472 109.474 31.5035 107.899 42.0703 81.5807 42.4641 80.5963 43.186 79.8087 47.9772 75.1488 63.0725 60.119 64.3852 58.8064 66.2229 58.6751 84.2717 57.7563 84.7311 57.7563 85.1906 57.8219 126.604 63.5975 127.326 63.6632 127.983 63.9913 184.754 90.1785 185.345 90.5067 185.87 90.9005 327.176 205.494"></polygon>
            <path d="M64.3849,74.2299 C64.7787,75.6082 65.2381,77.0521 65.6319,78.4304 C66.0257,79.8087 66.4851,81.2526 66.9446,82.6309 C66.0913,84.6655 65.3038,86.7001 64.5162,88.8003 C63.7286,90.9005 62.941,92.9351 62.1534,95.0353 C60.5782,96.6105 59.0031,98.12 57.4279,99.6296 C55.8527,101.205 54.2776,102.714 52.7024,104.224 C51.2585,104.289 49.7489,104.421 48.3707,104.552 C46.9268,104.618 45.4828,104.749 44.1046,104.88 C43.6451,103.502 43.1857,102.058 42.7919,100.68 C42.3981,99.2358 41.9387,97.9231 41.5449,96.4792 C42.3325,94.379 43.1201,92.2788 43.9733,90.2442 C44.7609,88.144 45.5485,86.0437 46.3361,84.0091 C47.9112,82.434 49.4864,80.8588 51.0616,79.3493 C52.6368,77.7741 54.2119,76.2645 55.7871,74.755 C57.1654,74.6894 58.6093,74.6237 60.1188,74.5581 C61.4971,74.3612 62.941,74.2956 64.3849,74.2299 Z" id="Path" fill="#706C6C"></path>
            <path d="M182.523,95.2322 C186.068,105.799 189.612,116.235 193.156,126.67 C239.426,162.636 285.763,198.143 332.887,232.075 C379.814,265.81 427.528,297.97 475.308,329.605 C473.077,324.945 470.911,320.285 468.679,315.625 C420.112,281.431 371.544,246.58 323.961,209.957 C276.18,173.138 229.319,134.48 182.523,95.2322 Z" id="Path" fill="#8C8C8C"></path>
            <path d="M475.308,329.605 C427.528,297.97 379.813,265.81 332.886,232.075 C285.762,198.209 239.426,162.702 193.155,126.736 C187.248,141.831 181.341,156.861 175.435,171.956 C223.477,203.197 271.586,234.11 320.285,263.71 C368.852,293.244 418.076,321.532 467.366,349.491 C470.057,342.862 472.682,336.233 475.308,329.605 Z" id="Path" fill="#706C6C"></path>
            <path d="M467.432,349.425 C418.142,321.466 368.918,293.179 320.35,263.644 C271.651,234.044 223.543,203.131 175.5,171.891 C163.49,182.982 151.413,194.271 139.337,205.625 C190.596,233.191 241.92,260.56 293.572,286.944 C345.225,313.262 397.337,338.662 449.514,363.799 C455.421,359.008 461.394,354.151 467.432,349.425 Z" id="Path" fill="#5E5858"></path>
            <polygon id="Path" fill="#4F4949" points="327.11 303.877 388.739 334.461 364.324 299.545"></polygon>
            <polygon id="Path" fill="#3B3939" points="407.247 347.719 335.577 313.328 350.935 359.401 418.142 392.349"></polygon>
            <path d="M105.799,208.382 C116.956,207.463 128.114,206.544 139.271,205.625 C190.53,233.191 241.854,260.56 293.507,286.944 C345.159,313.262 397.271,338.662 449.449,363.799 C443.607,363.996 437.766,364.193 431.925,364.39 C377.188,339.515 322.385,314.378 268.107,288.388 C213.764,262.463 159.683,235.488 105.799,208.382 Z" id="Path" fill="#4F4949"></path>
            <path d="M119.188,134.349 C137.893,146.95 156.664,159.552 175.435,171.956 C181.276,156.861 187.248,141.765 193.155,126.736 C173.531,116.431 153.842,106.062 134.283,95.6917 C129.23,108.556 124.242,121.485 119.188,134.349 Z" id="Path" fill="#8C8C8C"></path>
            <path d="M134.283,95.6917 C153.842,106.062 173.466,116.431 193.155,126.736 C189.611,116.3 186.067,105.799 182.523,95.2979 C163.555,86.5688 144.588,77.7741 125.686,69.045 C128.573,77.9053 131.396,86.8313 134.283,95.6917 Z" id="Path" fill="#F5F5F5"></path>
            <path d="M119.188,134.349 C137.893,146.95 156.664,159.552 175.435,171.956 C163.424,183.048 151.348,194.337 139.272,205.691 C122.404,191.646 105.668,177.535 88.9976,163.161 C99.0393,153.448 109.147,143.866 119.188,134.349 Z" id="Path" fill="#706C6C"></path>
            <path d="M88.997,163.161 C105.668,177.469 122.469,191.646 139.271,205.691 C128.114,206.544 116.956,207.463 105.799,208.448 C90.9004,194.271 76.0675,179.963 61.3003,165.524 C70.5544,164.671 79.7429,163.883 88.997,163.161 Z" id="Path" fill="#4F4949"></path>
            <path d="M134.283,95.6916 C131.395,86.8313 128.573,77.971 125.685,69.045 C111.903,67.076 98.0542,65.1071 84.2715,63.2694 C86.1092,69.2419 87.9469,75.2144 89.8502,81.1213 C104.683,85.9781 119.516,90.8349 134.283,95.6916 Z" id="Path" fill="#D9D9D9"></path>
            <path d="M134.284,95.6916 C119.451,90.8349 104.684,85.9781 89.8507,81.1213 C86.4378,89.8504 83.025,98.5138 79.6777,107.243 C92.8042,116.3 105.931,125.357 119.188,134.349 C124.242,121.485 129.23,108.556 134.284,95.6916 Z" id="Path" fill="#5E5858"></path>
            <path d="M88.9976,163.162 C79.7434,163.883 70.5549,164.671 61.3008,165.459 C54.5407,153.12 47.9118,140.65 41.3486,128.114 C47.4524,127.589 53.4906,127.129 59.66,126.67 C69.3735,138.943 79.1527,151.085 88.9976,163.162 Z" id="Path" fill="#3B3939"></path>
            <path d="M88.9972,163.161 C79.218,151.085 69.3732,138.943 59.6597,126.67 C66.3541,120.172 73.0486,113.675 79.7431,107.243 C92.8695,116.3 105.996,125.357 119.254,134.349 C109.146,143.866 99.0389,153.448 88.9972,163.161 Z" id="Path" fill="#4F4949"></path>
            <path d="M66.9449,82.6309 C66.0261,79.8087 65.2385,76.9865 64.3853,74.2299 C71.0141,70.5545 77.6429,66.9448 84.3374,63.2694 C86.1751,69.2419 88.0128,75.2144 89.9161,81.1213 C82.2372,81.6464 74.6239,82.1058 66.9449,82.6309 Z" id="Path" fill="#8C8C8C"></path>
            <path d="M89.8506,81.1213 C82.2372,81.5807 74.5583,82.1058 66.945,82.6308 C65.3042,86.7657 63.729,90.9005 62.1538,95.0353 C67.9951,99.1045 73.8363,103.239 79.6776,107.243 C83.0905,98.5138 86.4377,89.8504 89.8506,81.1213 Z" id="Path" fill="#5E5858"></path>
            <path d="M55.7876,74.6894 C58.6098,74.5581 61.4976,74.3612 64.3198,74.2299 C70.9486,70.5545 77.5775,66.9448 84.2719,63.2694 C78.2338,63.5975 72.2613,63.8601 66.2231,64.1882 C62.7446,67.6667 59.2661,71.1452 55.7876,74.6894 Z" id="Path" fill="#8C8C8C"></path>
            <path d="M52.703,104.158 C49.8152,104.355 46.993,104.552 44.1052,104.749 C43.1207,112.559 42.2019,120.304 41.3486,128.048 C47.4524,127.523 53.4906,127.064 59.66,126.604 C57.2972,119.188 55.0001,111.706 52.703,104.158 Z" id="Path" fill="#3B3939"></path>
            <path d="M59.6596,126.67 C57.2969,119.254 54.9998,111.706 52.7026,104.224 C55.853,101.205 59.0033,98.12 62.1537,95.0353 C67.9949,99.1045 73.8362,103.239 79.6774,107.243 C73.0486,113.675 66.3541,120.172 59.6596,126.67 Z" id="Path" fill="#4F4949"></path>
            <path d="M41.5452,96.4136 C42.3984,99.1702 43.2516,101.992 44.1048,104.815 C43.1203,112.625 42.2015,120.369 41.3483,128.114 C39.4449,122.207 37.5416,116.3 35.7695,110.328 C37.6072,105.668 39.5762,101.073 41.5452,96.4136 Z" id="Path" fill="#5E5858"></path>
            <path d="M453.255,254.521 C441.507,255.112 400.881,263.316 389.133,263.972 C419.192,284.909 435.666,296.001 465.988,316.216 L561.942,306.699 C517.575,283.596 497.229,278.411 453.255,254.521 Z" id="Path" fill="#4F4949"></path>
            <path d="M446.495,246.842 C448.727,249.402 450.958,251.962 453.255,254.521 C441.507,255.112 400.881,263.316 389.133,263.972 C386.507,260.166 383.882,256.293 381.257,252.421 C393.399,253.077 434.353,246.12 446.495,246.842 Z" id="Path" fill="#706C6C"></path>
            <polygon id="Path" fill="#D9D9D9" points="554.985 299.545 561.877 306.765 453.256 254.521 446.496 246.842"></polygon>
            <polygon id="Path" fill="#D9D9D9" points="396.55 353.954 364.324 299.545 448.727 351.394 500.839 419.652"></polygon>
            <polygon id="Path" fill="#8C8C8C" points="364.324 299.545 355.332 310.834 391.495 360.911 396.549 353.954"></polygon>
            <polygon id="Path" fill="#706C6C" points="500.839 419.652 496.901 424.705 391.496 360.911 396.549 353.954"></polygon>
            <path d="M5.25057,52.1119 C21.593,62.8099 38.5261,71.4077 54.9997,81.9089 C55.131,82.4339 55.2622,82.959 55.4591,83.4184 C55.5904,83.9435 55.7217,84.4029 55.9842,84.9279 C55.656,85.6499 55.3279,86.3718 55.0653,87.1594 C54.7372,87.8814 54.4747,88.669 54.2121,89.3909 C53.6214,89.916 53.0307,90.441 52.5713,91.0317 C51.9806,91.5568 51.3899,92.1475 50.8649,92.6725 C50.3398,92.7382 49.8148,92.7382 49.3553,92.7382 C48.8303,92.8038 48.3052,92.8038 47.8458,92.8038 C32.3566,80.8587 16.3424,70.817 0.984482,58.6751 C0.590689,57.7562 0.262528,56.7061 0,55.7216 C0.721953,54.6059 1.44391,53.4902 2.16586,52.3744 C3.15034,52.2431 4.13482,52.1775 5.25057,52.1119 Z" id="Path" fill="#3B3939"></path>
            <polygon id="Path" fill="#8C8C8C" points="418.142 392.349 413.154 391.955 344.766 360.911 350.935 359.401"></polygon>
            <polygon id="Path" fill="#5E5858" points="328.489 316.872 344.766 360.911 350.935 359.402 339.45 321.991"></polygon>
            <polygon id="Path" fill="#5E5858" points="202.475 111.903 208.644 131.658 245.595 157.255 252.814 172.875 361.37 254.521 358.154 235.422 202.54 111.968"></polygon>
            <polygon id="Path" fill="#3B3939" points="361.369 254.521 252.814 172.875 235.159 204.575 230.827 207.66 369.245 302.17"></polygon>
            <polygon id="Path" fill="#3B3939" points="369.246 302.17 230.828 207.66 189.217 237.457 198.865 246.383 265.547 272.505 279.067 279.527 301.251 269.157 314.771 276.443 306.042 293.244 351.262 318.644 371.083 313.459"></polygon>
            <polygon id="Path" fill="#5A7596" points="324.157 315.362 346.931 327.964 363.47 318.053 354.544 306.239"></polygon>
            <path d="M264.038,286.484 L258.196,283.662 L272.373,276.049 L279.133,279.527 L264.038,286.484 Z M306.042,293.244 L351.853,318.447 L339.449,325.863 L312.474,309.39 L306.042,293.244 Z" id="Shape" fill="#3B3939"></path>
            <polygon id="Path" fill="#F5F5F5" points="363.995 317.725 354.544 306.239 368.589 314.969"></polygon>
            <polygon id="Path" fill="#7790AE" points="354.544 306.239 346.537 318.513 352.575 324.551 363.995 317.725"></polygon>
            <polygon id="Path" fill="#5A7596" points="334.592 335.38 330.522 333.28 332.623 336.496"></polygon>
            <polygon id="Path" fill="#310401" points="372.987 162.702 420.045 197.421 442.36 243.101 419.52 300.595 393.333 319.432 397.009 324.485 389.133 336.102 335.774 346.144 304.861 329.408 302.892 311.884 320.219 309.915 308.536 299.611 328.226 266.138 309.324 256.95 238.507 293.901 195.715 287.797 160.339 270.273 145.703 247.63 189.611 239.098 235.882 211.86 260.559 182.26 257.868 152.792 289.963 130.477 350.869 127.261"></polygon>
            <polygon id="Path" fill="#CB3805" points="291.604 135.202 262.922 155.154 265.548 183.836 239.032 215.602 191.318 243.626 153.645 250.977 163.687 266.532 197.159 283.137 237.654 288.913 324.354 243.626 312.737 253.209 331.442 262.332 346.144 245.136 314.706 298.626 355.726 334.658 327.439 318.644 307.421 313.984 309.718 327.176 335.052 341.287 386.18 331.902 391.102 324.616 388.149 320.547 364.39 334.264 415.583 297.51 436.979 243.495 417.224 201.294 369.443 166.181 348.31 132.183"></polygon>
            <polygon id="Path" fill="#780500" points="273.03 148.132 262.922 155.154 265.548 183.836 255.834 195.518 282.874 177.075 321.86 174.253"></polygon>
            <polygon id="Path" fill="#401715" points="220.787 226.365 191.318 243.626 153.645 250.977 163.687 266.532 197.159 283.137 237.654 288.913 247.827 283.596 267.385 241.132 255.047 225.84"></polygon>
            <polygon id="Path" fill="#ED6437" points="291.603 135.202 290.225 136.974 360.911 201.556 392.677 204.247 365.374 232.994 394.777 258.919 436.978 243.495 417.223 201.294 369.443 166.181 348.31 132.183"></polygon>
            <polygon id="Path" fill="#401715" points="318.775 291.735 314.706 298.626 355.726 334.658 327.373 316.15 307.421 313.984 308.537 326.52 335.052 341.287 386.179 331.902 391.102 324.616 388.148 320.547 364.39 334.264 415.583 297.51 424.509 275.064 355.726 317.988"></polygon>
            <polygon id="Path" fill="#780500" points="312.737 253.209 321.335 246.12 343.059 248.811 331.442 262.332"></polygon>
            <path d="M294.294,5.77563 L288.65,29.6657 L319.3,46.4675 L375.35,63.6632 L390.052,75.9364 L364.455,99.4983 L366.227,112.362 L358.548,133.89 L337.415,139.928 L338.005,166.902 L329.276,159.092 L327.373,175.369 L273.03,164.343 L244.151,152.529 L211.795,130.608 L173.203,91.0317 L185.87,80.6619 L174.581,77.4459 L197.553,63.4006 L191.252,42.3327 L205.232,24.2839 L219.408,19.4927 L275.983,0 C282.546,2.0346 286.615,3.34724 294.294,5.77563 Z" id="Path" fill="#310401"></path>
            <path d="M333.936,62.6131 C398.453,37.3447 330.392,141.306 332.558,135.53 L330.851,135.137 L330.589,133.364 C327.767,113.544 315.428,71.6703 333.936,62.6131 Z" id="Path" fill="#310401"></path>
            <path d="M264.563,24.6121 C226.891,-5.70999 192.499,81.8433 203.919,65.0414 L205.166,66.2884 L206.807,65.5665 C224.987,57.2968 266.926,45.1549 264.563,24.6121 Z" id="Path" fill="#310401"></path>
            <polygon id="Path" fill="#CB3805" points="319.563 52.3088 330.589 61.2348 331.377 91.5568 339.712 88.8659 333.346 97.7262 340.762 104.814 331.639 104.289 332.82 156.533 325.47 149.904 323.041 170.118 274.999 161.258 242.839 146.622 213.239 127.458 179.832 91.7537 195.649 78.8242 186.067 76.1332 230.697 49.0272 225.381 41.6108 235.357 44.0391 239.36 33.9318 241.592 42.3983 263.513 26.9748 263.776 31.1752 281.693 31.6347"></polygon>
            <polygon id="Path" fill="#780500" points="238.311 100.877 221.706 76.724 232.404 61.4317 203.919 90.1785 205.626 119.319 213.239 127.458 245.661 150.298 274.999 161.258 303.811 145.113 309.456 106.587 289.504 121.813 275.196 121.091 260.101 104.88"></polygon>
            <polygon id="Path" fill="#ED6437" points="331.639 85.5843 331.377 91.5568 339.712 88.8659 333.346 97.7262 340.762 104.814 331.639 104.289 332.821 156.533 325.47 149.904 323.041 170.118 301.055 166.049 319.038 162.505 331.245 85.5186"></polygon>
            <polygon id="Path" fill="#FEE7D5" points="257.606 99.1701 265.416 116.694 275.721 121.944 275.064 137.04 250.977 149.772 245.202 149.969 224.199 135.071 212.254 108.752 218.686 94.7071 228.925 92.8694 244.939 92.2787"></polygon>
            <polygon id="Path" fill="#F0BC95" points="240.345 135.071 262.594 125.882 275.064 137.04 250.977 149.772 245.202 149.969 224.199 135.071 212.254 108.752 216.914 100.023 219.408 105.471 219.933 109.081 222.034 124.242"></polygon>
            <polygon id="Path" fill="#F0BC95" points="269.485 77.0521 278.083 59.0689 291.997 63.9257 282.481 80.0712"></polygon>
            <polygon id="Path" fill="#F0BC95" points="296.395 78.1022 293.507 68.4543 285.631 81.6463 291.21 84.0091"></polygon>
            <polygon id="Path" fill="#FEE7D5" points="325.404 73.9674 330.589 61.2347 372.265 69.1106 382.438 77.6428 357.498 97.7262 360.78 110.984 343.584 125.226 357.498 120.369 354.544 130.411 335.971 135.727 331.901 113.675 346.997 110.196 346.931 94.904 362.355 79.2179 331.245 85.5186"></polygon>
            <path d="M335.971,135.727 L331.836,113.675 L346.931,110.196 L346.866,94.8384 L362.355,79.1523 L349.622,96.2823 L352.51,108.752 L343.584,125.16 L335.971,135.727 Z M362.355,79.218 L331.245,85.5187 L325.404,73.9674 L333.542,80.3994 L362.355,79.218 Z" id="Shape" fill="#F0BC95"></path>
            <polygon id="Path" fill="#780500" points="330.589 61.2348 319.563 52.3088 372.266 69.1106"></polygon>
            <polygon id="Path" fill="#310401" points="238.77 93.7883 229.45 84.0748 228.728 80.2025 238.507 76.2645 244.545 81.9089 243.955 92.6069"></polygon>
            <polygon id="Path" fill="#780500" points="238.572 79.4149 243.232 84.1404 241.92 91.0974 237.654 92.5413 231.55 86.2406 232.337 81.9745"></polygon>
            <polygon id="Path" fill="#310401" points="238.901 81.6463 242.445 84.9936 241.658 89.5878 237.129 90.9005 233.65 87.8814 234.372 83.2215"></polygon>
            <polygon id="Path" fill="#FEE7D5" points="241.592 81.5807 243.364 83.2871 242.839 86.0437 240.28 86.8313 238.311 85.0592 238.704 82.4339"></polygon>
            <polygon id="Path" fill="#FEE7D5" points="244.545 81.8433 243.364 92.8038 247.433 91.2287 248.746 80.465 238.835 71.3421 227.021 75.6082 228.728 80.2025 237.851 76.5927"></polygon>
            <polygon id="Path" fill="#310401" points="282.481 109.54 278.018 98.3826 268.698 96.7418 259.969 103.305 264.957 109.277 279.921 110.656"></polygon>
            <polygon id="Path" fill="#FEE7D5" points="300.398 147.016 274.999 161.258 301.054 166.049 315.69 152.988 313.262 142.094 319.366 145.309 309.455 106.587"></polygon>
            <polygon id="Path" fill="#ED6437" points="257.606 99.1701 261.15 90.9661 257.212 88.8003 253.209 86.6344 244.939 92.2788"></polygon>
            <polygon id="Path" fill="#780500" points="276.508 100.023 268.829 98.5794 263.973 103.699 266.335 109.277 275.721 110.262 279.134 107.112"></polygon>
            <polygon id="Path" fill="#310401" points="275.064 101.008 270.01 100.023 266.794 103.436 268.698 107.965 273.489 109.081 276.771 105.733"></polygon>
            <polygon id="Path" fill="#FEE7D5" points="270.601 100.089 268.042 99.6295 266.138 101.73 267.188 104.289 269.945 104.946 271.783 103.042"></polygon>
            <polygon id="Path" fill="#ED6437" points="274.342 48.1084 315.362 50.0117 298.757 40.9545 282.218 31.8972"></polygon>
            <polygon id="Path" fill="#F0BC95" points="274.999 161.258 284.384 155.942 300.398 157.255 310.309 150.429 313.262 142.094 315.69 152.989 301.054 166.049"></polygon>
            <polygon id="Path" fill="#FEE7D5" points="291.997 63.9257 278.083 59.0689 270.667 74.6894 277.755 75.5426"></polygon>
            <polygon id="Path" fill="#FEE7D5" points="296.395 78.1022 293.507 68.4543 289.503 80.465"></polygon>
            <polygon id="Path" fill="#ED6437" points="246.449 38.9199 241.592 42.3984 239.36 33.9318 235.357 44.0392 225.381 41.6108 230.697 49.0272 186.067 76.1333 195.649 78.8242 179.832 91.7537 195.124 108.096 188.43 91.0318 246.711 39.248"></polygon>
            <polygon id="Path" fill="#F0BC95" points="259.378 70.9483 272.045 55.4591 261.675 44.958 251.174 60.4472"></polygon>
            <polygon id="Path" fill="#F0BC95" points="245.399 50.6024 255.375 49.0928 246.843 61.8911 242.314 57.8219"></polygon>
            <polygon id="Path" fill="#780500" points="263.775 31.1752 281.693 31.6347 288.453 9.77917"></polygon>
            <polygon id="Path" fill="#FEE7D5" points="203.919 90.1785 205.625 119.319 191.121 102.452 194.73 79.6118 201.097 76.724 195.124 73.3111 233.06 60.7754"></polygon>
            <polygon id="Path" fill="#F0BC95" points="205.625 119.319 204.969 108.49 197.487 98.7107 199.259 82.6965 201.097 76.7239 194.73 79.6118 191.121 102.452"></polygon>
            <polygon id="Path" fill="#FEE7D5" points="261.675 44.958 272.045 55.4591 261.084 68.8481 257.278 62.8099"></polygon>
            <polygon id="Path" fill="#FEE7D5" points="245.398 50.6024 255.375 49.0928 246.252 57.8219"></polygon>
            <polygon id="Path" fill="#FEE7D5" points="263.776 31.1752 268.961 25.5965 288.453 9.77916 275.786 5.7756 222.296 23.7588 209.367 28.0905 206.61 50.2742 203.197 35.9664 196.372 43.7766 201.885 62.2849 222.69 53.8839 217.439 39.3136 230.435 31.1096 262.397 21.8555 246.449 38.9198"></polygon>
            <path d="M201.885,62.2849 L222.69,53.884 L217.505,39.248 L230.435,31.044 L262.398,21.7899 L227.678,29.6001 L215.668,33.8662 L206.676,50.2742 L201.885,62.2849 Z M262.398,21.8555 L246.515,38.9855 L263.841,31.1753 L256.622,31.8316 L262.398,21.8555 Z" id="Shape" fill="#F0BC95"></path>
            <polygon id="Path" fill="#FEE7D5" points="267.976 97.2668 259.969 103.305 258.525 99.0389 267.648 92.6725 280.38 94.2477 287.337 108.227 282.481 109.54 278.018 98.3825"></polygon>
            <polygon id="Path" fill="#310401" points="238.901 96.0854 247.892 99.4983 247.761 102.255 236.078 104.814 233.519 109.212 234.109 110.984 243.364 119.713 259.312 123.06 262.791 120.172 264.038 121.223 262.331 126.67 259.115 125.16 240.935 122.47 230.106 112.1 227.152 111.443 219.933 109.081 219.408 105.471 216.52 105.34 216.914 100.023 218.817 99.5639 220.524 105.733 228.924 108.162 230.762 107.702 233.125 103.174 228.924 91.9506 231.222 90.3754"></polygon>
            <polygon id="Path" fill="#F0BC95" points="238.769 96.348 247.892 99.4983 256.753 98.7107 244.939 92.2788 231.222 90.3754"></polygon>
            <polygon id="Path" fill="#310401" points="148.001 226.234 148.066 226.234 163.227 237.26 163.949 237.785 164.409 240.148 166.903 252.881 142.422 253.996 138.025 249.468 122.995 244.48 121.551 238.704 110.919 233.65 110.722 217.636 133.693 214.748"></polygon>
            <polygon id="Path" fill="#401715" points="116.497 230.106 116.366 222.559 132.052 220.59 141.24 227.94 131.592 233.453 146.491 232.01 155.089 238.31 147.607 241.789 159.158 242.576 160.142 247.564 144.653 248.286 141.109 244.611 127.654 240.148 126.342 234.766"></polygon>
            <polygon id="Path" fill="#8C8C8C" points="469.992 185.673 374.234 138.221 464.15 192.105 646.411 311.621"></polygon>
            <polygon id="Path" fill="#8C8C8C" points="288.322 369.049 218.03 315.756 299.873 366.621 479.18 461"></polygon>
            <polygon id="Path" fill="#8C8C8C" points="209.104 289.109 163.228 252.815 211.205 284.318 311.753 344.437"></polygon>
        </g>
    </g>
</svg>