<?xml version="1.0" encoding="UTF-8"?>
<svg width="800px" height="701px" viewBox="0 0 800 701" version="1.1" xmlns="http://www.w3.org/2000/svg" xmlns:xlink="http://www.w3.org/1999/xlink">
    <!-- Generator: Sketch 60.1 (88133) - https://sketch.com -->
    <title>RedpandaSitting</title>
    <desc>Created with Sketch.</desc>
    <g id="RedpandaSitting" stroke="none" stroke-width="1" fill="none" fill-rule="evenodd">
        <g id="PANDA_sitting">
            <polygon id="_395158712" fill-opacity="0.2" fill="#310401" points="314.797107 660.958754 184.911978 665.277634 120.321501 685.616383 358.019939 686.274104 414.564605 700.444996 486.423586 692.469557 605.328458 700.297814 712.008003 693.122679 800 650.398427 764.699254 632.152426 634.8523 655.660193"></polygon>
            <g id="Group" transform="translate(0.000000, 328.560649)">
                <polygon id="_395145248" fill="#310401" points="277.190199 154.634126 575.073304 272.632907 461.255419 349.627629 151.984086 304.410478 3.97992802 189.990065 0 82.8326377 88.3139582 0.437246312 189.221659 19.1096163"></polygon>
                <polygon id="_395146640" fill="#CB3805" points="270.547219 161.938045 555.419872 274.780848 459.049525 339.968793 155.715156 295.625536 13.0472018 185.326227 9.37293456 86.3834098 93.0095324 12.3962653 184.175607 31.1334874"></polygon>
                <polygon id="_395146208" fill="#ED6437" points="270.547219 161.938045 555.419872 274.780848 459.049525 339.968793 299.394023 294.834431 229.614911 227.466349 146.584337 90.3702094 40.5152299 58.8331896 93.0095324 12.3976451 184.175607 31.1334874"></polygon>
                <polygon id="_395147336" fill="#780500" points="459.049525 339.968793 155.715156 295.625536 13.0472018 185.326227 9.37293456 86.3834098 51.7253671 162.416388 177.393264 273.860959"></polygon>
                <polygon id="_395147360" fill="#401715" points="93.0081525 12.3994849 157.732473 25.6955627 146.584337 90.3702094 60.0043695 169.752504 12.4359815 168.837214 9.37293456 86.3834098"></polygon>
                <polygon id="_395146760" fill="#401715" points="230.061518 100.625594 202.187956 58.4141801 189.403797 130.569825 101.251279 206.331896 55.7328642 218.327251 116.798326 265.540561 147.732818 247.556728 221.950395 160.728391"></polygon>
                <polygon id="_395147864" fill="#401715" points="270.547219 161.933446 256.332632 140.40804 257.84539 194.672301 196.807065 278.41441 155.715156 295.625536 211.830694 303.830947 241.693976 288.95174 279.66608 215.310014 281.546334 166.293721"></polygon>
                <polygon id="_395148032" fill="#401715" points="307.381421 317.799464 260.310693 310.914094 298.393184 259.897041 316.143365 179.99547 343.011947 190.413214 328.585785 276.294066"></polygon>
            </g>
            <polygon id="_395145320" fill="#310401" points="449.554889 310.465349 625.322249 254.02325 734.421102 381.531845 742.57132 448.479998 799.852818 507.516644 784.504467 616.495912 733.427622 649.95688 733.068865 651.557487 707.265974 674.982465 675.088252 669.467729 667.007026 651.916244 615.84739 662.352387 515.625467 625.607414 435.034438 662.467373 397.003461 665.5582 302.230501 638.771028 296.236504 596.971265 329.997355 574.268401 333.879288 575.579243 311.733876 554.794347 320.292985 489.022273 351.341083 466.949533 378.565203 292.402865"></polygon>
            <polygon id="_395148656" fill="#CB3805" points="449.819357 319.072292 622.613175 263.585038 726.510056 385.012246 733.956558 446.22581 665.438615 510.570676 736.260881 453.85905 791.090874 510.3729 776.832592 611.629699 733.459818 640.045075 757.754091 539.639173 726.55605 518.150563 687.745927 530.863431 670.852162 626.711281 694.727885 535.485874 724.362114 526.052411 749.203721 542.789794 725.571769 647.183414 704.690285 666.14233 680.782366 662.044224 671.776651 642.496579 616.495912 653.77442 515.280509 616.661492 432.914094 654.335553 397.820783 657.187209 309.659986 632.272011 305.166787 600.935987 331.221728 583.416698 420.275277 613.52467 350.633689 579.957915 320.487081 551.657525 328.034772 493.672312 358.979843 471.668564 385.340187 302.666529"></polygon>
            <path d="M650.600803,296.298596 L726.505916,385.012706 L733.955822,446.22581 L727.326641,452.451528 L727.324924,452.449811 L713.678461,385.912388 L644.254886,300.603248 L650.600787,296.298596 L650.600803,296.298596 Z M731.799417,457.42914 L736.256658,453.85957 L791.088031,510.37158 L778.909573,596.851739 L778.907856,596.855173 L783.421756,514.847975 L731.799417,457.429414 L731.799417,457.42914 Z" id="_395148296" fill="#ED6437"></path>
            <polygon id="_395148368" fill="#780500" points="449.819357 319.072292 622.613175 263.585038 643.186496 300.973933 665.052261 345.88936 668.718019 507.493647 665.438615 510.570676 668.727218 507.935194 671.358101 623.864224 670.852162 626.711281 671.376499 624.719721 671.776651 642.496579 616.495912 653.77442 515.280509 616.661492 441.557372 650.384629 387.292651 602.375614 420.275277 613.52467 364.036014 586.415537 364.030954 586.410937 379.08862 360.930008 377.51285 352.855221 385.340187 302.666529"></polygon>
            <polygon id="_395149160" fill="#401715" points="733.050467 458.819552 791.090874 510.3729 776.832592 611.629699 733.459818 640.045075 757.754091 539.639173 726.55605 518.150563 687.745927 530.863431 670.852162 626.711281 694.727885 535.485874 724.362114 526.052411 749.203721 542.789794 725.571769 647.183414 704.690285 666.14233 680.782366 662.044224 671.776651 642.496579 616.495912 653.77442 515.280509 616.661492 432.914094 654.335553 397.820783 657.187209 309.659986 632.272011 305.166787 600.935987 331.221728 583.416698 420.275277 613.52467 350.633689 579.957915 320.487081 551.657525 328.034772 493.672312 434.201479 497.209286 532.52843 562.857176 666.55628 537.031288 702.24338 506.495567"></polygon>
            <polygon id="_730913064" fill="#310401" points="672.797728 352.455069 691.931422 494.472616 638.660641 639.065393 653.723826 674.559316 638.09031 684.595306 638.1731 684.72869 620.49743 695.638576 591.695701 693.366449 555.705038 690.533191 533.843872 652.141617 532.381248 652.343993 532.330654 649.483137 529.520393 644.552531 532.234066 643.628043 529.37781 475.283728 502.733221 372.809916 614.196189 270.700381 679.871675 317.777548"></polygon>
            <polygon id="_395151128" fill="#CB3805" points="512.226477 375.204848 537.941978 474.11087 540.798234 642.501179 577.25804 637.409592 542.127474 649.335955 560.91161 682.332379 584.276795 684.172157 574.613359 663.230881 595.623627 685.06445 618.377086 686.858234 626.398519 681.90463 611.730886 657.835731 632.883738 677.737533 642.993319 671.247715 631.913254 645.136661 597.605988 635.059275 630.731197 635.76759 682.893511 494.173652 663.957593 352.833144 670.626789 320.152242 613.906424 253.338393"></polygon>
            <polygon id="_569540696" fill="#310401" points="506.983109 481.860936 535.324893 634.364759 538.056964 634.879897 536.26318 639.424149 536.9255 642.993319 534.85115 642.997919 518.619706 684.089367 455.18461 698.274058 436.153943 689.962859 436.214196 689.820277 419.325951 682.088608 429.236377 644.828498 355.958007 508.87808 361.500339 418.723424 350.247335 387.170766 371.638898 313.670703 497.660032 372.806237"></polygon>
            <polygon id="_569541800" fill="#CB3805" points="488.842894 377.332551 498.359148 482.445065 526.604344 634.433751 489.79038 634.530339 526.254786 641.392712 512.304667 676.707257 489.431623 681.817241 496.050226 659.726103 478.323962 684.300942 456.050226 689.282142 447.412007 685.510596 458.544965 659.611117 440.405211 682.300183 429.483367 677.295986 436.773489 649.887889 469.318247 635.073074 436.624467 640.440627 365.028574 507.613233 370.416365 418.165051 359.209815 386.749917 379.533386 306.756356"></polygon>
            <polygon id="_395149664" fill="#ED6437" points="365.028574 507.613233 370.416365 418.165051 359.211655 386.749917 374.293238 327.380731 377.497212 323.996458 375.069164 379.370566 393.241574 415.713547 427.690963 436.723815 401.948325 507.893799"></polygon>
            <polygon id="_569553848" fill="#401715" points="506.123012 524.23103 526.604344 634.433751 489.79038 634.530339 526.254786 641.392712 512.304667 676.707257 489.431623 681.817241 496.050226 659.726103 478.323962 684.300942 456.050226 689.282142 447.412007 685.510596 458.544965 659.611117 440.405211 682.300183 429.483367 677.295986 436.773489 649.887889 469.318247 635.073074 436.624467 640.440627 365.028574 507.613233 398.911311 471.930732 428.439753 469.658606 506.123012 524.226431"></polygon>
            <g id="Group" transform="translate(288.165638, 0.000000)">
                <path d="M38.1213449,58.191268 L55.1501949,66.9752435 L121.124645,66.2043258 L204.363115,46.277227 L264.089678,16.3539687 L274.769223,1.53998183 L313.718571,0.00158220934 L338.599135,78.0426783 L363.881461,94.982253 L381.626307,137.930406 L357.961376,175.902832 L395.655628,215.672906 L371.825853,215.866923 L391.12798,243.029318 L226.511976,314.38282 L43.7323008,326.193828 L48.642807,293.234982 L27.3077719,303.854412 L42.9064243,251.327362 L4.61120885,228.186078 L0.983262617,181.859081 L15.8539147,155.306204 L2.69678614,74.4594465 C15.3594283,68.645793 23.2299539,65.0281449 38.1212115,58.1912068 L38.1213449,58.191268 Z" id="_395150936" fill="#310401"></path>
                <path d="M247.311038,64.0017478 C310.036899,-62.0975772 349.419193,187.419136 344.697402,175.729645 L341.529603,177.462063 L338.748121,175.159612 C307.46844,149.271218 231.684982,102.961192 247.311139,64.0015868 L247.311038,64.0017478 Z" id="_395151968" fill="#310401"></path>
                <path d="M90.8852668,101.450435 C-22.1424333,17.4254602 55.7355664,257.725344 54.6521669,245.165638 L58.2612278,245.275523 L59.6983293,241.963495 C75.8635413,204.717367 122.460066,129.109194 90.8852852,101.450426 L90.8852668,101.450435 Z" id="_395151344" fill="#310401"></path>
                <polygon id="_395151608" fill="#CB3805" points="165.156197 66.2527165 207.829395 56.0364276 248.157336 69.1149516 282.915347 111.152966 291.819874 95.6795106 294.225384 117.735693 315.148263 118.233813 300.683006 129.898927 373.759001 207.007716 353.576633 207.170996 377.594938 240.962204 293.001932 293.11532 224.695563 314.963607 153.905033 326.413927 54.8633275 318.222314 60.9741511 277.219635 42.9047685 286.212931 73.1438247 184.371083 54.9612957 180.521807 73.3912749 170.602642 65.5482999 149.848103 80.4941989 159.610887 92.4476986 106.39162 122.47932 76.4703853"></polygon>
                <polygon id="_395152448" fill="#780500" points="247.908965 228.339025 270.432451 209.905826 270.432451 163.715892 314.412352 229.491186 293.001932 293.11532 224.695563 314.963607 203.05517 224.570699"></polygon>
                <polygon id="_395152688" fill="#780500" points="164.773063 248.240367 136.342049 242.008118 115.429289 200.823301 106.001345 279.384594 153.905033 326.413927 224.695563 314.963607 203.05517 224.570699"></polygon>
                <polygon id="_395152520" fill="#ED6437" points="275.151483 101.759518 282.915347 111.152966 291.819874 95.6795106 294.225384 117.735693 315.148263 118.233813 300.683006 129.898927 373.759001 207.007716 353.576633 207.170996 377.594938 240.962204 338.876804 264.830108 361.170317 234.891396 274.51216 102.247059"></polygon>
                <polygon id="_395152088" fill="#FEE7D5" points="200.953224 215.786678 215.354088 212.852231 247.908965 228.339025 267.658986 223.583198 286.383329 241.156301 253.308715 301.176308 224.695563 314.963607 192.940989 315.629607 136.274897 277.09269 145.012924 252.94514 164.773063 248.240367 186.786931 219.690687"></polygon>
                <polygon id="_395152304" fill="#F0BC95" points="221.549542 301.810112 245.848414 295.992733 253.373107 259.059183 276.480723 259.127715 253.308715 301.176308 224.695563 314.963607 192.940989 315.629607 159.65664 292.991595 178.024986 283.738889 197.24607 307.627031"></polygon>
                <polygon id="_395153312" fill="#F0BC95" points="210.294698 181.145032 194.495602 143.775455 220.781434 129.201651 232.376637 165.47932"></polygon>
                <polygon id="_395153168" fill="#F0BC95" points="248.258523 141.665229 229.676762 132.975496 239.013637 162.81992 250.19489 157.560914"></polygon>
                <polygon id="_395153408" fill="#FEE7D5" points="249.932722 92.8416526 240.352076 66.5820369 279.971702 11.6255591 306.993446 10.5576138 330.675992 84.8436763 353.728414 100.291375 347.238596 145.284533 361.588867 118.978923 370.884347 138.078582 350.131648 171.379029 313.865018 143.809491 331.885646 117.931629 310.838582 94.9569377 297.210425 49.0383709 274.51216 102.247059"></polygon>
                <path d="M350.131648,171.379029 L313.865892,143.809721 L331.887164,117.931629 L310.840606,94.9568917 L297.211345,49.0383709 L316.973599,93.5060425 L338.301735,108.342337 L347.241954,145.284579 L350.131648,171.379029 L350.131648,171.379029 Z M297.211345,49.0382973 L274.514781,102.247059 L249.932998,92.8415146 L270.976106,91.5108673 L297.211345,49.0382973 L297.211345,49.0382973 Z" id="_395153144" fill="#F0BC95"></path>
                <polygon id="_395152928" fill="#780500" points="240.352076 66.5820369 207.829395 56.0364276 270.432451 24.8530592"></polygon>
                <polygon id="_395153768" fill="#310401" points="208.330735 246.602504 226.475548 239.42047 230.173503 243.788563 215.906022 263.585038 218.155151 273.685881 221.494348 275.556016 248.198731 265.066979 253.373107 259.059183 256.859487 260.935757 254.683949 271.539779 249.068026 270.269413 216.789115 281.929008 189.19704 288.534272 184.763175 292.211988 178.024986 283.738889 180.283314 280.490301 187.614831 283.502018 209.705969 278.376856 211.835512 275.200478 209.269022 265.175066 187.582635 253.985535 188.902676 248.415606"></polygon>
                <polygon id="_395154104" fill="#F0BC95" points="208.468718 247.174216 226.475548 239.42047 208.358331 215.85337 201.371773 217.529408 194.380616 219.199926 188.902676 248.415606"></polygon>
                <polygon id="_395154200" fill="#310401" points="246.432543 217.881265 259.430577 205.821059 261.454333 186.448653 237.799384 180.229742 223.80787 193.488105 224.074638 215.678131"></polygon>
                <polygon id="_395153912" fill="#FEE7D5" points="311.896455 236.962066 293.001932 293.11532 338.876804 264.830108 343.076098 225.072039 324.590925 212.081364 338.186887 208.578886 270.432451 163.715892"></polygon>
                <polygon id="_395153720" fill="#ED6437" points="200.953224 215.786678 215.354088 212.852231 203.947463 188.806329 195.00614 190.945531 186.064818 193.086573 186.786931 219.690687"></polygon>
                <polygon id="_395154488" fill="#780500" points="238.608886 184.680166 226.990686 195.440569 229.626169 209.603643 244.362793 213.228006 255.866007 203.32126 253.506491 188.929594"></polygon>
                <polygon id="_395154512" fill="#310401" points="238.516897 188.256695 230.877218 195.333862 232.606609 204.65004 242.306841 207.035312 249.868329 200.519277 248.318316 191.051778"></polygon>
                <polygon id="_395155016" fill="#FEE7D5" points="242.569009 184.584038 238.765267 188.289351 239.910529 193.903895 245.420665 195.258431 249.725747 191.553118 248.842653 186.169007"></polygon>
                <polygon id="_395154944" fill="#ED6437" points="165.156197 66.2527165 174.101659 103.620454 202.526234 57.3072545"></polygon>
                <polygon id="_395155112" fill="#F0BC95" points="293.001932 293.11532 299.997689 272.307427 325.920165 252.436901 331.476296 228.560718 324.590925 212.081364 343.076098 225.072039 338.876804 264.830108"></polygon>
                <polygon id="_395154704" fill="#FEE7D5" points="220.781434 129.199811 194.495602 143.775455 208.188152 176.165672 219.125634 166.519714"></polygon>
                <polygon id="_395155640" fill="#FEE7D5" points="248.258523 141.66339 229.676762 132.975496 242.454023 155.299366"></polygon>
                <polygon id="_395155304" fill="#ED6437" points="83.166017 147.72086 80.4941989 159.610887 65.5482999 149.848103 73.3912749 170.602642 54.9612957 180.521807 73.1438247 184.371083 42.9047685 286.212931 60.9741511 277.219635 54.8633275 318.222314 100.191325 321.970403 66.7570343 305.372843 83.9539021 147.866662"></polygon>
                <polygon id="_395155808" fill="#F0BC95" points="175.154932 181.692826 172.317074 141.220463 142.284533 140.128555 148.37282 177.724884"></polygon>
                <polygon id="_395155784" fill="#F0BC95" points="124.321398 167.402348 136.953316 151.240815 142.14195 182.079179 129.791979 182.453114"></polygon>
                <polygon id="_395155160" fill="#780500" points="98.2595582 100.598618 122.47932 76.4703853 52.543827 77.0163395"></polygon>
                <polygon id="_395155376" fill="#310401" points="161.354755 238.249451 144.30369 233.381857 133.728644 217.026228 152.000862 200.769947 170.476836 206.255706 180.287914 226.160268"></polygon>
                <polygon id="_395156456" fill="#FEE7D5" points="111.627847 284.906229 153.905033 326.413927 100.191325 321.970403 78.444226 288.424345 89.041349 268.471489 75.3350006 271.505284 115.429289 200.823301"></polygon>
                <polygon id="_395156000" fill="#780500" points="153.295606 205.103545 168.524831 209.437143 172.588442 223.258937 161.090287 233.163844 146.348603 229.54132 141.937735 215.639035"></polygon>
                <polygon id="_395156528" fill="#310401" points="154.995102 208.252326 165.013614 211.102602 167.686812 220.192027 160.122104 226.709901 150.426472 224.325089 147.524682 215.182311"></polygon>
                <polygon id="_395156576" fill="#FEE7D5" points="149.722297 206.810399 154.789046 208.393069 156.311923 213.916543 152.009141 217.621857 146.494406 216.26548 144.844585 211.064887"></polygon>
                <polygon id="_395156312" fill="#ED6437" points="165.156197 66.2527165 174.101659 103.620454 127.78662 75.1977187"></polygon>
                <polygon id="_395155928" fill="#F0BC95" points="153.905033 326.413927 138.239321 311.031541 106.13197 305.053181 90.3650695 286.281463 89.041349 268.471489 78.444226 288.424345 100.191325 321.970403"></polygon>
                <polygon id="_395157128" fill="#FEE7D5" points="142.284533 140.126715 172.317074 141.218623 174.777778 176.298136 160.659319 172.651236"></polygon>
                <polygon id="_395156984" fill="#FEE7D5" points="124.321398 167.400508 136.953316 151.240815 135.67053 176.92964"></polygon>
                <polygon id="_395157104" fill="#FEE7D5" points="101.611174 128.348454 98.2595582 100.598618 38.0491336 69.5404004 13.4742948 80.8260605 25.9995056 157.782147 12.4371198 181.99501 38.6001472 219.17049 13.896524 202.215553 14.2539009 223.454414 47.8395138 243.745789 67.6893419 202.744489 39.9036301 187.830786 48.2635827 157.816643 39.622144 110.70498 83.9539021 147.866662"></polygon>
                <path d="M47.8395138,243.746111 L67.6893419,202.744673 L39.9036761,187.831108 L48.2635827,157.816827 L39.622098,110.705164 L42.1391677,159.300608 L29.8422735,182.186025 L38.6004921,219.17118 L47.8394908,243.746111 L47.8395138,243.746111 Z M39.622098,110.70498 L83.954132,147.866984 L101.611404,128.3485 L82.2474617,136.691251 L39.622098,110.70498 L39.622098,110.70498 Z" id="_395156840" fill="#F0BC95"></path>
                <polygon id="_395156720" fill="#FEE7D5" points="223.80787 193.488105 224.074638 215.678131 215.354088 212.852231 214.783757 187.580117 233.866858 171.306818 265.106293 176.833512 261.454333 186.448653 237.799384 180.229742"></polygon>
                <polygon id="_395157032" fill="#FEE7D5" points="170.476836 206.255706 180.287914 226.160268 186.786931 219.690687 175.849449 196.899974 151.466867 191.032921 126.117481 210.106822 133.728644 217.026228 152.000862 200.769947"></polygon>
            </g>
            <polygon id="_395150672" fill="#ED6437" points="570.731427 317.531937 538.112157 371.971897 555.231295 471.622569 540.41648 620.16627 537.941978 474.11087 512.231076 375.204848 561.463544 322.210954"></polygon>
            <polygon id="_730901256" fill="#401715" points="538.783677 523.656099 540.798234 642.501179 577.25804 637.409592 542.127474 649.335955 560.91161 682.332379 584.276795 684.172157 574.613359 663.230881 595.623627 685.06445 618.377086 686.858234 626.398519 681.90463 611.730886 657.835731 632.883738 677.737533 642.993319 671.247715 631.913254 645.136661 597.605988 635.059275 630.731197 635.76759 682.893511 494.173652 638.168501 439.75071 607.88115 441.265308"></polygon>
        </g>
    </g>
</svg>