<svg width="236" height="124" viewBox="0 0 236 124" fill="none" xmlns="http://www.w3.org/2000/svg">
<path fill-rule="evenodd" clip-rule="evenodd" d="M26.6828 91.0721L18.2825 113.084L17.8785 114.65L17.5188 113.084L9.02902 91.0721H0L13.2963 123.508H22.4151L35.6217 91.0721H26.6828Z" fill="#2D2828"/>
<path fill-rule="evenodd" clip-rule="evenodd" d="M48.1083 109.37C47.8836 107.536 46.4014 106.417 44.2453 106.417C42.0443 106.417 40.6515 107.357 40.0674 109.37H48.1083ZM55.7446 114.381H39.9327C40.472 116.528 41.8644 117.602 44.1552 117.602C46.0869 117.602 47.3446 116.931 47.9736 115.544L54.8911 118.452C52.4654 122.21 48.8717 124 43.9756 124C37.0129 124 31.9819 118.989 31.9819 112.099C31.9819 105.299 37.1479 100.288 44.335 100.288C51.2076 100.288 55.8344 105.254 55.8344 112.189C55.8344 113.442 55.7446 114.381 55.7446 114.381Z" fill="#2D2828"/>
<path fill-rule="evenodd" clip-rule="evenodd" d="M58.1689 112.099C58.1689 105.433 63.3795 100.288 70.5666 100.288C75.463 100.288 79.326 102.749 81.4824 107.044L74.0706 109.862C73.3969 108.52 72.1841 107.67 70.5666 107.67C68.0511 107.67 66.3442 109.504 66.3442 112.055C66.3442 114.739 67.9613 116.573 70.3871 116.573C72.3187 116.573 73.5762 115.723 74.295 114.157L81.662 117.065C79.461 121.539 75.5079 124 70.1626 124C63.3346 124 58.1689 119.034 58.1689 112.099Z" fill="#2D2828"/>
<path fill-rule="evenodd" clip-rule="evenodd" d="M103.402 122.568C103.402 122.568 100.707 124 96.35 124C89.7916 124 86.6022 120.958 86.6022 114.65V107.491H82.8738V100.78H86.6022V95.0091H94.5982V100.78H101.471V107.491H94.5982V114.023C94.5982 116.215 95.3615 117.021 97.4731 117.021C99.5394 117.021 100.977 115.857 100.977 115.857L103.402 122.568Z" fill="#2D2828"/>
<path fill-rule="evenodd" clip-rule="evenodd" d="M121.01 112.144C121.01 109.37 119.213 107.581 116.473 107.581C113.778 107.581 111.937 109.46 111.937 112.144C111.937 114.828 113.733 116.707 116.473 116.707C119.169 116.707 121.01 114.828 121.01 112.144ZM103.761 112.144C103.761 105.344 109.106 100.288 116.473 100.288C123.93 100.288 129.141 105.21 129.141 112.144C129.141 118.989 123.795 124 116.473 124C109.016 124 103.761 119.034 103.761 112.144Z" fill="#2D2828"/>
<path fill-rule="evenodd" clip-rule="evenodd" d="M132.599 100.78H140.325V105.433C141.493 102.168 143.829 100.423 147.063 100.423C147.692 100.423 148.231 100.467 148.68 100.557L148.186 108.475H147.288C142.391 108.475 140.594 110.355 140.594 115.544V123.508H132.599V100.78Z" fill="#2D2828"/>
<mask id="mask0" mask-type="alpha" maskUnits="userSpaceOnUse" x="0" y="0" width="236" height="124">
<path fill-rule="evenodd" clip-rule="evenodd" d="M0 124H236V0H0V124Z" fill="white"/>
</mask>
<g mask="url(#mask0)">
<path fill-rule="evenodd" clip-rule="evenodd" d="M151.284 123.508H159.28V100.781H151.284V123.508ZM150.7 93.8009C150.7 91.2065 152.632 89.2826 155.282 89.2826C157.932 89.2826 159.819 91.1168 159.819 93.8009C159.819 96.3063 157.932 98.2302 155.282 98.2302C152.587 98.2302 150.7 96.396 150.7 93.8009Z" fill="#2D2828"/>
<path fill-rule="evenodd" clip-rule="evenodd" d="M162.738 117.423L171.992 107.715H163.007V100.78H182.368V106.641L173.114 116.439H182.503V123.508H162.738V117.423Z" fill="#2D2828"/>
<path fill-rule="evenodd" clip-rule="evenodd" d="M201.054 109.37C200.829 107.536 199.347 106.417 197.191 106.417C194.99 106.417 193.597 107.357 193.013 109.37H201.054ZM208.69 114.381H192.878C193.418 116.528 194.81 117.602 197.101 117.602C199.032 117.602 200.29 116.931 200.919 115.544L207.836 118.452C205.411 122.21 201.817 124 196.921 124C189.959 124 184.927 118.989 184.927 112.099C184.927 105.299 190.093 100.288 197.281 100.288C204.153 100.288 208.78 105.254 208.78 112.189C208.78 113.442 208.69 114.381 208.69 114.381Z" fill="#2D2828"/>
<path fill-rule="evenodd" clip-rule="evenodd" d="M228.184 112.144C228.184 109.504 226.297 107.581 223.692 107.581C221.087 107.581 219.334 109.415 219.334 112.144C219.334 114.873 221.042 116.707 223.647 116.707C226.297 116.707 228.184 114.873 228.184 112.144ZM236 90.3116V123.508H228.274V120.421C226.881 122.658 224.725 124 221.67 124C215.427 124 211.204 119.257 211.204 112.144C211.204 105.075 215.651 100.288 221.805 100.288C224.59 100.288 226.657 101.452 228.004 103.42V90.3116H236Z" fill="#2D2828"/>
<path fill-rule="evenodd" clip-rule="evenodd" d="M107.886 64.385H81.8704V0H99.728V7.85183H89.754V56.5332H107.886V64.385Z" fill="#2D2828"/>
<path fill-rule="evenodd" clip-rule="evenodd" d="M104.011 7.85183H107.537V0H104.011V7.85183Z" fill="#2D2828"/>
<path fill-rule="evenodd" clip-rule="evenodd" d="M118.969 -0.00012207H144.985V64.3849H127.127V56.5331H137.101V7.85171H118.969V-0.00012207Z" fill="#2D2828"/>
<path fill-rule="evenodd" clip-rule="evenodd" d="M119.318 64.385H122.844V56.5332H119.318V64.385Z" fill="#2D2828"/>
<path fill-rule="evenodd" clip-rule="evenodd" d="M101.796 16.342V26.2411L115.537 32.4536L126.484 27.5042L101.796 16.342Z" fill="#D85556"/>
<path fill-rule="evenodd" clip-rule="evenodd" d="M126.484 27.5042L115.537 32.4537L101.796 38.6662V48.5653L126.484 37.4031V27.5042Z" fill="#F05E60"/>
</g>
</svg>
