<?xml version="1.0" encoding="UTF-8"?>
<svg width="842px" height="210px" viewBox="0 0 842 210" version="1.1" xmlns="http://www.w3.org/2000/svg" xmlns:xlink="http://www.w3.org/1999/xlink">
    <!-- Generator: Sketch 60.1 (88133) - https://sketch.com -->
    <title>VectorizedDocsLogo</title>
    <desc>Created with Sketch.</desc>
    <g id="VectorizedDocsLogo" stroke="none" stroke-width="1" fill="none" fill-rule="evenodd" transform="translate(0.000000, 0.000000)">
        <g id="Vectorized-Logo" transform="translate(-0.000000, 40.000000)" fill-rule="nonzero">
            <polyline id="Fill-18" fill="#262422" points="166.531 18.446 192.361 18.446 216.651 81.673 217.681 86.17 218.841 81.673 242.871 18.446 268.441 18.446 230.661 111.616 204.571 111.616 166.531 18.446"></polyline>
            <path d="M304.171,71.006 C303.531,65.738 299.291,62.525 293.121,62.525 C286.821,62.525 282.841,65.224 281.171,71.006 L304.171,71.006 Z M326.021,85.4 L280.781,85.4 C282.331,91.568 286.311,94.653 292.861,94.653 C298.391,94.653 301.991,92.725 303.791,88.741 L323.581,97.094 C316.641,107.889 306.361,113.03 292.351,113.03 C272.431,113.03 258.041,98.636 258.041,78.846 C258.041,59.312 272.821,44.919 293.381,44.919 C313.041,44.919 326.281,59.184 326.281,79.103 C326.281,82.701 326.021,85.4 326.021,85.4 L326.021,85.4 Z" id="Fill-19" fill="#262422"></path>
            <path d="M332.961,78.846 C332.961,59.698 347.871,44.919 368.431,44.919 C382.441,44.919 393.491,51.987 399.661,64.325 L378.451,72.42 C376.531,68.565 373.061,66.124 368.431,66.124 C361.231,66.124 356.351,71.392 356.351,78.717 C356.351,86.428 360.981,91.697 367.921,91.697 C373.441,91.697 377.041,89.255 379.101,84.757 L400.171,93.11 C393.871,105.961 382.571,113.03 367.271,113.03 C347.741,113.03 332.961,98.765 332.961,78.846" id="Fill-20" fill="#262422"></path>
            <path d="M462.371,108.917 C462.371,108.917 454.661,113.03 442.201,113.03 C423.441,113.03 414.311,104.291 414.311,86.17 L414.311,65.609 L403.641,65.609 L403.641,46.333 L414.311,46.333 L414.311,29.755 L437.191,29.755 L437.191,46.333 L456.851,46.333 L456.851,65.609 L437.191,65.609 L437.191,84.372 C437.191,90.668 439.371,92.982 445.411,92.982 C451.321,92.982 455.431,89.64 455.431,89.64 L462.371,108.917" id="Fill-21" fill="#262422"></path>
            <path d="M512.751,78.974 C512.751,71.006 507.611,65.867 499.771,65.867 C492.061,65.867 486.791,71.264 486.791,78.974 C486.791,86.685 491.931,92.083 499.771,92.083 C507.481,92.083 512.751,86.685 512.751,78.974 Z M463.411,78.974 C463.411,59.441 478.701,44.919 499.771,44.919 C521.111,44.919 536.011,59.055 536.011,78.974 C536.011,98.636 520.721,113.03 499.771,113.03 C478.441,113.03 463.411,98.765 463.411,78.974 L463.411,78.974 Z" id="Fill-22" fill="#262422"></path>
            <path d="M545.911,46.333 L568.021,46.333 L568.021,59.698 C571.361,50.317 578.041,45.305 587.291,45.305 C589.091,45.305 590.631,45.433 591.921,45.69 L590.501,68.436 L587.931,68.436 C573.931,68.436 568.791,73.833 568.791,88.741 L568.791,111.616 L545.911,111.616 L545.911,46.333" id="Fill-23" fill="#262422"></path>
            <path d="M599.371,111.616 L622.251,111.616 L622.251,46.333 L599.371,46.333 L599.371,111.616 Z M597.701,26.286 C597.701,18.832 603.231,13.306 610.811,13.306 C618.391,13.306 623.791,18.575 623.791,26.286 C623.791,33.482 618.391,39.008 610.811,39.008 C603.101,39.008 597.701,33.739 597.701,26.286 L597.701,26.286 Z" id="Fill-24" fill="#262422"></path>
            <polyline id="Fill-25" fill="#262422" points="632.141 94.138 658.621 66.251 632.921 66.251 632.921 46.333 688.301 46.333 688.301 63.167 661.831 91.311 688.691 91.311 688.691 111.616 632.141 111.616 632.141 94.138"></polyline>
            <path d="M741.771,71.006 C741.121,65.738 736.881,62.525 730.711,62.525 C724.421,62.525 720.431,65.224 718.761,71.006 L741.771,71.006 Z M763.611,85.4 L718.381,85.4 C719.921,91.568 723.901,94.653 730.461,94.653 C735.981,94.653 739.581,92.725 741.381,88.741 L761.171,97.094 C754.231,107.889 743.951,113.03 729.941,113.03 C710.021,113.03 695.631,98.636 695.631,78.846 C695.631,59.312 710.411,44.919 730.971,44.919 C750.631,44.919 763.871,59.184 763.871,79.103 C763.871,82.701 763.611,85.4 763.611,85.4 L763.611,85.4 Z" id="Fill-26" fill="#262422"></path>
            <path d="M819.391,78.974 C819.391,71.392 813.991,65.867 806.541,65.867 C799.081,65.867 794.071,71.135 794.071,78.974 C794.071,86.813 798.961,92.083 806.411,92.083 C813.991,92.083 819.391,86.813 819.391,78.974 Z M841.751,16.262 L841.751,111.616 L819.651,111.616 L819.651,102.749 C815.661,109.174 809.491,113.03 800.751,113.03 C782.891,113.03 770.811,99.408 770.811,78.974 C770.811,58.67 783.531,44.919 801.141,44.919 C809.111,44.919 815.021,48.261 818.871,53.915 L818.871,16.262 L841.751,16.262 L841.751,16.262 Z" id="Fill-27" fill="#262422"></path>
            <polyline id="Fill-28" fill="#262422" points="50.611 125.76 -5.68434189e-14 125.76 -5.68434189e-14 0 34.741 0 34.741 15.337 15.341 15.337 15.341 110.423 50.611 110.423 50.611 125.76"></polyline>
            <polygon id="Fill-29" fill="#262422" points="43.071 15.337 49.931 15.337 49.931 0 43.071 0"></polygon>
            <polyline id="Fill-30" fill="#262422" points="72.171 0 122.781 0 122.781 125.76 88.041 125.76 88.041 110.423 107.441 110.423 107.441 15.337 72.171 15.337 72.171 0"></polyline>
            <polygon id="Fill-31" fill="#262422" points="72.851 125.76 79.711 125.76 79.711 110.423 72.851 110.423"></polygon>
            <polyline id="Fill-32" fill="#C85051" points="38.761 31.92 38.761 51.256 65.491 63.39 86.791 53.723 38.761 31.92"></polyline>
            <polyline id="Fill-33" fill="#E0595B" points="86.791 53.723 86.791 53.723 65.491 63.39 38.761 75.525 38.761 94.861 86.791 73.058 86.791 53.723"></polyline>
        </g>
    </g>
</svg>