<?xml version="1.0" encoding="UTF-8"?>
<svg width="500px" height="390px" viewBox="0 0 500 390" version="1.1" xmlns="http://www.w3.org/2000/svg" xmlns:xlink="http://www.w3.org/1999/xlink">
    <!-- Generator: Sketch 60.1 (88133) - https://sketch.com -->
    <title>PANDA_face_2</title>
    <desc>Created with Sketch.</desc>
    <g id="Page-1" stroke="none" stroke-width="1" fill="none" fill-rule="evenodd">
        <g id="PANDA_face_2" transform="translate(-1.000000, 0.000000)">
            <path d="M94.0786525,0 L112.801385,16.1300133 L195.786857,34.9756699 L306.176839,34.9756699 L390.077557,15.3742827 L407.921634,0 L457.240454,9.76771736 L465.014089,115.127033 L491.640194,143.965715 L501.000414,203.165942 L459.914985,243.691205 L495.252581,304.894527 L465.305318,297.981332 L481.360207,337.846434 L345.655111,382.439668 L251.001051,389.516741 L156.346991,382.439668 L20.6396657,337.846434 L36.694555,297.981332 L6.74729152,304.894527 L42.0848879,243.691205 L0.999458623,203.165942 L10.3596782,143.965715 L36.9857841,115.127033 L44.7594184,9.76771736 C62.3872311,6.27583484 73.3454368,4.10424376 94.0782385,0 L94.0786525,0 Z" id="_569533040" fill="#310401"></path>
            <path d="M354.729452,70.1038807 C471.272345,-69.2297159 445.745776,255.569178 443.332826,239.489322 L438.839364,240.711707 L436.041766,236.987637 C404.580748,195.123899 323.429908,114.27814 354.729467,70.1036769 L354.729452,70.1038807 Z" id="_569533376" fill="#310401"></path>
            <path d="M147.271822,70.1038807 C30.7289293,-69.2297159 56.2577274,255.569178 58.6684479,239.489322 L63.16191,240.711707 L65.9595082,236.987637 C97.4205258,195.123899 178.571366,114.27814 147.271806,70.1036769 L147.271822,70.1038807 Z" id="_569532944" fill="#310401"></path>
            <polygon id="_569565152" fill="#CB3805" points="251.001274 48.2558103 307.597477 48.2558103 354.251766 76.7710994 385.228092 139.936754 401.045858 123.201195 397.437738 151.589101 423.532116 158.498029 401.8834 168.784513 470.393084 287.448967 445.024789 281.594451 465.00479 331.19224 343.236333 371.203195 251.001274 378.100976 158.76717 371.203195 36.9977581 331.19224 56.9745744 281.594451 31.6073933 287.448967 100.117874 168.784513 78.4675651 158.498029 104.563535 151.589101 100.957645 123.201195 116.773501 139.936754 147.749826 76.7710994 194.402842 48.2558103"></polygon>
            <polygon id="_569564984" fill="#780500" points="306.129389 276.415701 339.91801 260.05815 353.783634 202.121243 389.199252 297.829078 343.236333 371.203195 251.001274 378.100976 251.001274 258.221289"></polygon>
            <polygon id="_569564720" fill="#780500" points="195.873477 276.415701 162.083901 260.05815 148.216366 202.121243 112.803614 297.829078 158.76717 371.203195 251.001274 378.100976 251.001274 258.221289"></polygon>
            <polygon id="_569564336" fill="#ED6437" points="378.308018 125.823689 385.228092 139.936754 401.045858 123.201195 397.437738 151.589101 423.532116 158.498029 401.8834 168.784513 470.393084 287.448967 445.024789 281.594451 465.00479 331.19224 409.27479 349.503525 446.228557 318.645029 377.3622 126.242461"></polygon>
            <polygon id="_569564744" fill="#FEE7D5" points="251.001274 246.568624 269.945015 247.212863 306.129389 276.415701 332.325992 276.379397 350.538556 304.045679 291.03261 369.397543 251.001274 378.100976 210.969938 369.397543 151.4624 304.045679 169.675282 276.379397 195.873477 276.415701 232.055622 247.212863"></polygon>
            <polygon id="_569564192" fill="#F0BC95" points="251.001274 360.655894 283.224996 360.655894 303.754973 316.588432 332.717694 323.61296 291.03261 369.397543 251.001274 378.100976 210.969938 369.397543 176.017037 331.010719 201.834995 324.918634 218.775641 360.655894"></polygon>
            <polygon id="_569564864" fill="#F0BC95" points="273.120351 205.924895 264.524875 154.307133 301.870343 143.918106 305.523684 192.904456"></polygon>
            <polygon id="_569563832" fill="#F0BC95" points="332.593496 167.801117 311.895056 151.3251 314.647162 191.563752 330.252836 188.322177"></polygon>
            <polygon id="_569563424" fill="#FEE7D5" points="349.35071 107.064335 345.223506 71.2509633 411.421191 14.2133472 445.633042 20.987663 453.030801 121.277714 477.313158 147.576223 455.661257 202.064239 481.555007 173.378257 487.484679 200.124835 451.451254 235.662741 414.239537 190.193431 444.613979 163.143681 425.114848 128.006713 421.806079 66.3183807 377.3622 126.242461"></polygon>
            <path d="M451.451254,235.662741 L414.240174,190.193112 L444.613119,163.143618 L425.11418,128.006331 L421.806684,66.3179986 L433.242925,128.028941 L455.539479,153.041138 L455.660124,202.064112 L451.451203,235.662741 L451.451254,235.662741 Z M421.806747,66.317903 L377.361595,126.242142 L349.351475,107.064144 L376.146044,111.712376 L421.806747,66.317903 L421.806747,66.317903 Z" id="_569563712" fill="#F0BC95"></path>
            <polygon id="_569563688" fill="#780500" points="345.223506 71.2509633 307.597477 48.2558103 395.482412 27.9418115"></polygon>
            <polygon id="_569563208" fill="#310401" points="251.001274 287.44005 275.915768 283.87747 279.243645 290.467622 255.401396 311.015751 255.194399 324.35815 258.815894 327.708319 295.464578 322.571605 303.754973 316.588432 307.563402 319.985733 301.65634 332.638035 294.991351 329.357927 251.001274 334.290828 214.409593 334.290828 207.742056 337.570936 201.834995 324.918634 205.643424 321.520697 213.936047 327.504506 243.184425 327.708319 246.808467 324.35815 246.601152 311.015751 222.759221 290.467622 226.084869 283.87747"></polygon>
            <polygon id="_569563112" fill="#F0BC95" points="251.001274 288.195749 275.915768 283.87747 260.270606 248.876802 251.001274 248.881579 241.730031 248.876802 226.084869 283.87747"></polygon>
            <polygon id="_569563328" fill="#FEE7D5" points="383.798219 306.444936 343.236333 371.203195 409.27479 349.503525 426.477845 300.892954 407.195265 279.049342 425.299554 278.737572 353.783634 202.121243"></polygon>
            <polygon id="_569562944" fill="#ED6437" points="251.001274 246.568624 269.945015 247.212863 262.858707 213.625826 251.001274 213.625826 239.141612 213.625826 232.055622 247.212863"></polygon>
            <polygon id="_569561984" fill="#ED6437" points="251.001274 48.2558103 251.001274 97.8134733 300.559255 48.2558103"></polygon>
            <polygon id="_569561936" fill="#F0BC95" points="343.236333 371.203195 358.264326 347.207449 396.743502 330.064902 410.882999 301.785271 407.195265 279.049342 426.477845 300.892954 409.27479 349.503525"></polygon>
            <polygon id="_569562368" fill="#FEE7D5" points="301.872573 143.918106 264.524875 154.304904 271.975498 199.045902 288.590362 190.229735"></polygon>
            <polygon id="_569562104" fill="#FEE7D5" points="332.590311 167.801117 311.895056 151.322871 321.218207 183.161897"></polygon>
            <polygon id="_569561072" fill="#ED6437" points="123.693574 125.823689 116.773501 139.936754 100.957645 123.201195 104.563535 151.589101 78.4675651 158.498029 100.117874 168.784513 31.6073933 287.448967 56.9745744 281.594451 36.9977581 331.19224 92.7264835 349.503525 55.7727171 318.645029 124.638437 126.242461"></polygon>
            <polygon id="_569561312" fill="#F0BC95" points="228.879967 196.059411 237.475444 144.441649 200.130294 134.052622 196.476635 183.038973"></polygon>
            <polygon id="_569561408" fill="#F0BC95" points="169.409052 162.868535 190.105263 146.392518 187.353156 186.630851 171.751304 183.389276"></polygon>
            <polygon id="_569561384" fill="#780500" points="156.777768 71.2509633 194.402842 48.2558103 106.516633 27.9418115"></polygon>
            <polygon id="_569560472" fill="#FEE7D5" points="118.200825 306.444936 158.76717 371.203195 92.7264835 349.503525 75.5221551 300.892954 94.8047348 279.049342 76.703631 278.737572 148.216366 202.121243"></polygon>
            <polygon id="_395157824" fill="#ED6437" points="251.001274 48.2558103 251.001274 97.8134733 201.441382 48.2558103"></polygon>
            <polygon id="_569545568" fill="#F0BC95" points="158.76717 371.203195 143.73663 347.207449 105.257772 330.064902 91.1195488 301.785271 94.8047348 279.049342 75.5221551 300.892954 92.7264835 349.503525"></polygon>
            <polygon id="_395157728" fill="#FEE7D5" points="200.130294 134.052622 237.475444 144.43942 230.027368 189.180419 213.410275 180.364251"></polygon>
            <polygon id="_569543384" fill="#FEE7D5" points="169.409052 162.868535 190.105263 146.38997 180.783704 178.228996"></polygon>
            <polygon id="_569543144" fill="#FEE7D5" points="152.648334 107.064335 156.777768 71.2509633 90.5800824 14.2133472 56.3669582 20.987663 48.9688804 121.277714 24.6873834 147.576223 46.3396982 202.064239 20.4443241 173.378257 14.5167859 200.124835 50.5487462 235.662741 87.7595075 190.193431 57.3866579 163.143681 76.8857885 128.006713 80.1932844 66.3183807 124.638437 126.242461"></polygon>
            <path d="M50.5487462,235.662741 L87.759826,190.193112 L57.3868808,163.143618 L76.8858204,128.006331 L80.1933162,66.3179986 L68.7570745,128.028941 L46.4605209,153.041138 L46.3398759,202.064112 L50.5487966,235.662741 L50.5487462,235.662741 Z M80.1932525,66.317903 L124.638405,126.242142 L152.648525,107.064144 L125.853956,111.712376 L80.1932525,66.317903 L80.1932525,66.317903 Z" id="_730900536" fill="#F0BC95"></path>
            <polygon id="_593035144" fill="#FEE7D5" points="286.366258 225.464788 280.033419 253.377238 269.945015 247.212863 276.819549 215.341991 305.639921 200.659843 343.163088 216.971855 335.695268 227.9392 307.893323 213.033814"></polygon>
            <polygon id="_569541872" fill="#FEE7D5" points="215.636609 225.464788 221.9669 253.377238 232.055622 247.212863 225.183317 215.341991 196.360716 200.659843 158.837867 216.971855 166.306324 227.9392 194.106995 213.033814"></polygon>
            <polygon id="_395143520" fill="#310401" points="212.629016 256.609194 207.511939 234.283107 192.811803 225.278012 168.703253 234.733908 166.306261 227.939154 194.1069 213.035994 215.633989 225.464663 221.966481 253.376638"></polygon>
            <polygon id="_569552072" fill="#310401" points="289.370438 256.609194 294.488061 234.283107 309.188197 225.278012 333.296747 234.733908 335.695922 227.939154 307.895283 213.035994 286.366011 225.464663 280.032973 253.376638"></polygon>
        </g>
    </g>
</svg>