<?xml version="1.0" encoding="UTF-8"?>
<!DOCTYPE svg PUBLIC "-//W3C//DTD SVG 1.1//EN" "http://www.w3.org/Graphics/SVG/1.1/DTD/svg11.dtd">
<!-- Creator: CorelDRAW -->
<svg xmlns="http://www.w3.org/2000/svg" xml:space="preserve" width="500px" height="390px" style="shape-rendering:geometricPrecision; text-rendering:geometricPrecision; image-rendering:optimizeQuality; fill-rule:evenodd; clip-rule:evenodd"
viewBox="0 0 157.007 122.314"
 xmlns:xlink="http://www.w3.org/1999/xlink">
 <defs>
  <style type="text/css">
   <![CDATA[
    .fil0 {fill:#310401}
    .fil2 {fill:#780500}
    .fil1 {fill:#CB3805}
    .fil3 {fill:#ED6437}
    .fil5 {fill:#F0BC95}
    .fil4 {fill:#FEE7D5}
   ]]>
  </style>
 </defs>
 <g id="Layer_x0020_1">
  <metadata id="CorelCorpID_0Corel-Layer"/>
  <g id="_395150432">
   <path id="_569533040" class="fil0" d="M29.228 0l5.8792 5.06505 26.0586 5.9178 34.664 0 26.346 -6.15511 5.60329 -4.82773 15.4868 3.06719 2.44103 33.0843 8.36097 9.05575 2.93924 18.5897 -12.9014 12.7255 11.0965 19.2187 -9.40386 -2.17084 5.04146 12.5182 -42.6133 14.0029 -29.7227 2.2223 -29.7227 -2.2223 -42.614 -14.0029 5.04146 -12.5182 -9.40386 2.17084 11.0965 -19.2187 -12.9014 -12.7255 2.93924 -18.5897 8.36097 -9.05575 2.44103 -33.0843c5.53538,-1.0965 8.97641,-1.77841 15.4868,-3.06719z"/>
   <path id="_569533376" class="fil0" d="M111.076 22.0136c36.5961,-43.7527 28.5804,58.2387 27.8227,53.1894l-1.41101 0.383846 -0.878485 -1.16941c-9.8792,-13.1458 -35.3617,-38.5325 -25.5332,-52.4039z"/>
   <path id="_569532944" class="fil0" d="M45.9314 22.0136c-36.5961,-43.7527 -28.5797,58.2387 -27.8227,53.1894l1.41101 0.383846 0.878485 -1.16941c9.8792,-13.1458 35.3617,-38.5325 25.5332,-52.4039z"/>
   <polygon id="_569565152" class="fil1" points="78.5039,15.153 96.2759,15.153 110.926,24.1072 120.653,43.9421 125.62,38.6869 124.487,47.6011 132.681,49.7706 125.883,53.0007 147.396,90.263 139.43,88.4246 145.704,103.999 107.467,116.563 78.5039,118.729 49.5411,116.563 11.3038,103.999 17.5768,88.4246 9.61115,90.263 31.1244,53.0007 24.3259,49.7706 32.5204,47.6011 31.3881,38.6869 36.3545,43.9421 46.0815,24.1072 60.7312,15.153 "/>
   <polygon id="_569564984" class="fil2" points="95.8149,86.7984 106.425,81.6619 110.779,63.4689 121.9,93.5225 107.467,116.563 78.5039,118.729 78.5039,81.0851 "/>
   <polygon id="_569564720" class="fil2" points="61.193,86.7984 50.5826,81.6619 46.228,63.4689 35.1079,93.5225 49.5411,116.563 78.5039,118.729 78.5039,81.0851 "/>
   <polygon id="_569564336" class="fil3" points="118.48,39.5104 120.653,43.9421 125.62,38.6869 124.487,47.6011 132.681,49.7706 125.883,53.0007 147.396,90.263 139.43,88.4246 145.704,103.999 128.204,109.749 139.808,100.059 118.183,39.6419 "/>
   <polygon id="_569564744" class="fil4" points="78.5039,77.426 84.4525,77.6283 95.8149,86.7984 104.041,86.787 109.76,95.4746 91.0743,115.996 78.5039,118.729 65.9335,115.996 47.2473,95.4746 52.9664,86.787 61.193,86.7984 72.5547,77.6283 "/>
   <polygon id="_569564192" class="fil5" points="78.5039,113.251 88.6226,113.251 95.0693,99.4132 104.164,101.619 91.0743,115.996 78.5039,118.729 65.9335,115.996 54.9578,103.942 63.065,102.029 68.3846,113.251 "/>
   <polygon id="_569564864" class="fil5" points="85.4496,64.6633 82.7505,48.4546 94.4775,45.1923 95.6247,60.5747 "/>
   <polygon id="_569563832" class="fil5" points="104.125,52.6919 97.6254,47.5182 98.4896,60.1537 103.39,59.1358 "/>
   <polygon id="_569563424" class="fil4" points="109.387,33.6197 108.091,22.3738 128.878,4.46319 139.621,6.59042 141.944,38.0829 149.569,46.341 142.77,63.451 150.901,54.4432 152.763,62.842 141.448,74.0014 129.763,59.7234 139.301,51.2294 133.178,40.1959 132.139,20.8249 118.183,39.6419 "/>
   <path id="_569563712" class="fil5" d="M141.448 74.0014l-11.6848 -14.2781 9.53753 -8.49392 -6.12294 -11.0336 -1.0386 -19.371 3.59114 19.3781 7.00143 7.85418 0.0378842 15.3939 -1.32166 10.5504zm-9.30879 -53.1766l-13.9564 18.817 -8.79557 -6.02216 8.41387 1.45961 14.3381 -14.2545z"/>
   <polygon id="_569563688" class="fil2" points="108.091,22.3738 96.2759,15.153 123.873,8.77412 "/>
   <polygon id="_569563208" class="fil0" points="78.5039,90.2602 86.3274,89.1415 87.3724,91.2109 79.8856,97.6633 79.8206,101.853 80.9578,102.905 92.466,101.292 95.0693,99.4132 96.2652,100.48 94.4103,104.453 92.3174,103.423 78.5039,104.972 67.0136,104.972 64.9199,106.002 63.065,102.029 64.2609,100.962 66.8649,102.841 76.0493,102.905 77.1873,101.853 77.1222,97.6633 69.6355,91.2109 70.6798,89.1415 "/>
   <polygon id="_569563112" class="fil5" points="78.5039,90.4975 86.3274,89.1415 81.4146,78.1508 78.5039,78.1523 75.5926,78.1508 70.6798,89.1415 "/>
   <polygon id="_569562680" class="fil0" points="96.2187,82.5404 102.476,79.0157 105.099,71.5761 96.3688,66.8956 89.609,70.7991 87.6204,79.564 "/>
   <polygon id="_569563328" class="fil4" points="120.204,96.228 107.467,116.563 128.204,109.749 133.606,94.4846 127.551,87.6254 133.236,87.5275 110.779,63.4689 "/>
   <polygon id="_569562944" class="fil3" points="78.5039,77.426 84.4525,77.6283 82.2273,67.0815 78.5039,67.0815 74.7798,67.0815 72.5547,77.6283 "/>
   <polygon id="_569562656" class="fil2" points="96.268,68.7248 90.6776,71.8678 90.3796,77.6948 95.8435,80.5125 101.308,77.6948 101.735,71.8034 "/>
   <polygon id="_569562440" class="fil0" points="95.8949,70.1251 92.218,72.1923 92.0222,76.025 95.6162,77.8785 99.2102,76.025 99.4911,72.1501 "/>
   <polygon id="_569561888" class="fil4" points="97.8363,69.06 95.99,70.1615 95.9107,72.4803 97.955,73.534 99.9993,72.4803 100.159,70.2766 "/>
   <polygon id="_569561984" class="fil3" points="78.5039,15.153 78.5039,30.7148 94.0658,15.153 "/>
   <polygon id="_569561936" class="fil5" points="107.467,116.563 112.186,109.028 124.269,103.645 128.709,94.7648 127.551,87.6254 133.606,94.4846 128.204,109.749 "/>
   <polygon id="_569562368" class="fil4" points="94.4782,45.1923 82.7505,48.4539 85.0901,62.5032 90.3074,59.7348 "/>
   <polygon id="_569562104" class="fil4" points="104.124,52.6919 97.6254,47.5175 100.553,57.5154 "/>
   <polygon id="_569561072" class="fil3" points="38.5275,39.5104 36.3545,43.9421 31.3881,38.6869 32.5204,47.6011 24.3259,49.7706 31.1244,53.0007 9.61115,90.263 17.5768,88.4246 11.3038,103.999 28.8034,109.749 17.1994,100.059 38.8242,39.6419 "/>
   <polygon id="_569561312" class="fil5" points="71.5575,61.5654 74.2566,45.3567 62.5297,42.0944 61.3824,57.4768 "/>
   <polygon id="_569561408" class="fil5" points="52.8828,51.143 59.3817,45.9693 58.5175,58.6047 53.6183,57.5868 "/>
   <polygon id="_569561384" class="fil2" points="48.9164,22.3738 60.7312,15.153 33.1337,8.77412 "/>
   <polygon id="_569560496" class="fil0" points="60.7884,82.5404 54.5311,79.0157 51.9085,71.5761 60.6383,66.8956 67.3989,70.7991 69.3867,79.564 "/>
   <polygon id="_569560472" class="fil4" points="36.8027,96.228 49.5411,116.563 28.8034,109.749 23.401,94.4846 29.456,87.6254 23.772,87.5275 46.228,63.4689 "/>
   <polygon id="_569560376" class="fil2" points="60.7398,68.7248 66.3295,71.8678 66.6276,77.6948 61.1637,80.5125 55.6991,77.6948 55.2723,71.8034 "/>
   <polygon id="_569560736" class="fil0" points="61.1122,70.1251 64.7891,72.1923 64.985,76.025 61.3917,77.8785 57.797,76.025 57.5161,72.1501 "/>
   <polygon id="_636165976" class="fil4" points="59.1708,69.06 61.0179,70.1615 61.0965,72.4803 59.0529,73.534 57.0086,72.4803 56.8485,70.2766 "/>
   <polygon id="_395157824" class="fil3" points="78.5039,15.153 78.5039,30.7148 62.9414,15.153 "/>
   <polygon id="_569545568" class="fil5" points="49.5411,116.563 44.8213,109.028 32.7384,103.645 28.2988,94.7648 29.456,87.6254 23.401,94.4846 28.8034,109.749 "/>
   <polygon id="_395157728" class="fil4" points="62.5297,42.0944 74.2566,45.356 71.9178,59.4053 66.6998,56.6369 "/>
   <polygon id="_569543384" class="fil4" points="52.8828,51.143 59.3817,45.9685 56.4546,55.9664 "/>
   <polygon id="_569543144" class="fil4" points="47.6197,33.6197 48.9164,22.3738 28.1294,4.46319 17.386,6.59042 15.0629,38.0829 7.43817,46.341 14.2373,63.451 6.10579,54.4432 4.24446,62.842 15.559,74.0014 27.2437,59.7234 17.7062,51.2294 23.8292,40.1959 24.8678,20.8249 38.8242,39.6419 "/>
   <path id="_730900536" class="fil5" d="M15.559 74.0014l11.6848 -14.2781 -9.53753 -8.49392 6.12294 -11.0336 1.0386 -19.371 -3.59114 19.3781 -7.00143 7.85418 -0.0378842 15.3939 1.32166 10.5504zm9.30879 -53.1766l13.9564 18.817 8.79557 -6.02216 -8.41387 1.45961 -14.3381 -14.2545z"/>
   <polygon id="_593035144" class="fil4" points="89.609,70.7991 87.6204,79.564 84.4525,77.6283 86.6112,67.6204 95.6612,63.01 107.444,68.1322 105.099,71.5761 96.3688,66.8956 "/>
   <polygon id="_569541872" class="fil4" points="67.3989,70.7991 69.3867,79.564 72.5547,77.6283 70.3967,67.6204 61.346,63.01 49.5633,68.1322 51.9085,71.5761 60.6383,66.8956 "/>
  </g>
 </g>
</svg>
