<svg width="24" height="24" xmlns="http://www.w3.org/2000/svg">
 <g>
  <path fill="#354253" id="svg_1" d="m5,23.874995l14,0l-14,0zm5.375,-17.713c1.371,2.338 1.406,6.65 0.344,8.447c2.562,-0.312 5.115,-2.838 5.674,-4.533c1.043,1.439 1.607,3.144 1.607,4.966c0,1.554 -0.862,3.961 -3.219,5.162c-0.219,-1.391 -1.125,-2.906 -2.638,-3.766c-1.44,0.844 -2.497,2.688 -2.784,3.938c-1.234,-0.548 -3.359,-2.22 -3.359,-4.501c0,-3.281 2.709,-4.585 4.375,-9.713zm-1.375,-4.287c0.542,6.292 -5,8.458 -5,14c0,3.764 3.49,6.42 7,7.005c-0.172,-1.458 0.297,-2.864 1.166,-3.692c0.85,0.766 1.24,2.469 0.834,3.688c3.868,-0.75 7,-3.858 7,-7.833c0,-3.626 -0.833,-7.043 -5.291,-9.168c0.604,2.312 -0.177,3.906 -1.271,4.896c0.063,-2.922 -1.157,-6.834 -4.438,-8.896z"/>
 </g>
</svg>