<svg xmlns="http://www.w3.org/2000/svg" width="24" height="24" viewBox="0 0 24 24"><path d="M19 24h-14v-2h14v2zm-8.625-19.713c1.371 2.338 1.406 6.65.344 8.447 2.562-.312 5.115-2.838 5.674-4.533 1.043 1.439 1.607 3.144 1.607 4.966 0 1.554-.862 3.961-3.219 5.162-.219-1.391-1.125-2.906-2.638-3.766-1.44.844-2.497 2.688-2.784 3.938-1.234-.548-3.359-2.22-3.359-4.501 0-3.281 2.709-4.585 4.375-9.713zm-1.375-4.287c.542 6.292-5 8.458-5 14 0 3.764 3.49 6.42 7 7.005-.172-1.458.297-2.864 1.166-3.692.85.766 1.24 2.469.834 3.688 3.868-.75 7-3.858 7-7.833 0-3.626-1.833-7.043-5.291-9.168.604 2.312-.177 3.906-1.271 4.896.063-2.922-1.157-6.834-4.438-8.896z"/></svg>